<svg width="88" height="22" viewBox="0 0 88 22" fill="none" xmlns="http://www.w3.org/2000/svg">
<path d="M5.39909 21.4627C4.7994 22.1304 3.76289 22.1914 3.17518 21.5131C1.81855 19.9475 0.850358 18.0738 0.361526 16.0445C-0.254688 13.4864 -0.0801548 10.8016 0.862057 8.34486C1.80427 5.88811 3.4698 3.7751 5.63852 2.28512C7.80724 0.795141 10.377 -0.00167113 13.0083 2.63016e-06C15.6395 0.00167639 18.2083 0.801757 20.3751 2.2945C22.5419 3.78724 24.2048 5.90236 25.1439 8.3603C26.0829 10.8182 26.2541 13.5033 25.6346 16.0606C25.1432 18.0892 24.1726 19.9617 22.814 21.5256C22.2254 22.2031 21.189 22.1408 20.5901 21.4723C19.9913 20.8039 20.0606 19.7835 20.6204 19.0821C21.5037 17.9754 22.1395 16.6842 22.4759 15.2954C22.9405 13.3775 22.8122 11.3637 22.1079 9.52023C21.4036 7.67677 20.1564 6.09043 18.5313 4.97087C16.9062 3.85132 14.9796 3.25126 13.0062 3.25C11.0328 3.24875 9.10543 3.84636 7.47889 4.96384C5.85235 6.08133 4.6032 7.66608 3.89654 9.50864C3.18988 11.3512 3.05898 13.3648 3.52114 15.2834C3.85579 16.6726 4.48997 17.9646 5.37183 19.0724C5.93077 19.7745 5.99879 20.795 5.39909 21.4627Z" fill="#EDF2F9"/>
<path d="M5.39468 21.4587C4.79464 22.1261 3.75812 22.1866 3.17077 21.508C2.24009 20.4328 1.48968 19.2093 0.952596 17.8847C0.21139 16.0566 -0.104071 14.0838 0.030109 12.1157C0.164289 10.1477 0.74459 8.23595 1.72706 6.52538C2.70952 4.81481 4.06838 3.35026 5.70072 2.24266C7.33305 1.13506 9.19603 0.413455 11.1486 0.132515C13.1011 -0.148424 15.0919 0.0186645 16.9703 0.621125C18.8487 1.22359 20.5654 2.24562 21.9902 3.60981C23.0227 4.5983 23.8824 5.74767 24.5376 7.00975C24.9512 7.80625 24.512 8.74708 23.6701 9.05808C22.8283 9.36909 21.9049 8.92935 21.4586 8.15076C20.9959 7.3437 20.4187 6.60455 19.7427 5.95735C18.674 4.93421 17.3865 4.16769 15.9777 3.71584C14.569 3.264 13.0758 3.13868 11.6114 3.34939C10.147 3.56009 8.74978 4.10129 7.52554 4.93199C6.30129 5.76269 5.28214 6.86111 4.54529 8.14403C3.80844 9.42696 3.37322 10.8608 3.27258 12.3368C3.17195 13.8128 3.40854 15.2924 3.96445 16.6635C4.31609 17.5308 4.78967 18.3403 5.36868 19.0684C5.92725 19.7708 5.99473 20.7913 5.39468 21.4587Z" fill="#F5803E"/>
<path d="M40.422 14.154H36.639L35.989 16H34.442L37.679 6.952H39.395L42.632 16H41.072L40.422 14.154ZM40.006 12.945L38.537 8.746L37.055 12.945H40.006ZM45.5215 6.38V16H44.0395V6.38H45.5215ZM49.1962 10.046V14.011C49.1962 14.2797 49.2569 14.4747 49.3782 14.596C49.5082 14.7087 49.7249 14.765 50.0282 14.765H50.9382V16H49.7682C49.1009 16 48.5895 15.844 48.2342 15.532C47.8789 15.22 47.7012 14.713 47.7012 14.011V10.046H46.8562V8.837H47.7012V7.056H49.1962V8.837H50.9382V10.046H49.1962ZM55.4111 16.117C54.7351 16.117 54.1241 15.9653 53.5781 15.662C53.0321 15.35 52.6031 14.9167 52.2911 14.362C51.9791 13.7987 51.8231 13.1487 51.8231 12.412C51.8231 11.684 51.9834 11.0383 52.3041 10.475C52.6248 9.91167 53.0624 9.47833 53.6171 9.175C54.1718 8.87167 54.7914 8.72 55.4761 8.72C56.1608 8.72 56.7804 8.87167 57.3351 9.175C57.8898 9.47833 58.3274 9.91167 58.6481 10.475C58.9688 11.0383 59.1291 11.684 59.1291 12.412C59.1291 13.14 58.9644 13.7857 58.6351 14.349C58.3058 14.9123 57.8551 15.35 57.2831 15.662C56.7198 15.9653 56.0958 16.117 55.4111 16.117ZM55.4111 14.83C55.7924 14.83 56.1478 14.739 56.4771 14.557C56.8151 14.375 57.0881 14.102 57.2961 13.738C57.5041 13.374 57.6081 12.932 57.6081 12.412C57.6081 11.892 57.5084 11.4543 57.3091 11.099C57.1098 10.735 56.8454 10.462 56.5161 10.28C56.1868 10.098 55.8314 10.007 55.4501 10.007C55.0688 10.007 54.7134 10.098 54.3841 10.28C54.0634 10.462 53.8078 10.735 53.6171 11.099C53.4264 11.4543 53.3311 11.892 53.3311 12.412C53.3311 13.1833 53.5261 13.7813 53.9161 14.206C54.3148 14.622 54.8131 14.83 55.4111 14.83Z" fill="#5E6E82"/>
</svg>
