<svg width="14" height="13" viewBox="0 0 14 13" fill="none" xmlns="http://www.w3.org/2000/svg">
<path d="M11.9844 4.41602C13.3301 5.76172 13.3301 7.91992 11.9844 9.26562L9.14062 12.1348C8.91211 12.3887 8.53125 12.3887 8.27734 12.1602C8.04883 11.9062 8.04883 11.5254 8.27734 11.2969L11.1211 8.40234C11.9844 7.53906 11.9844 6.14258 11.1211 5.2793L7.87109 1.97852C7.64258 1.75 7.64258 1.36914 7.89648 1.11523C8.125 0.886719 8.50586 0.886719 8.73438 1.14062L11.9844 4.41602ZM0 5.96484V2.15625C0 1.49609 0.533203 0.9375 1.21875 0.9375H5.00195C5.43359 0.9375 5.83984 1.11523 6.14453 1.41992L10.4102 5.68555C11.0449 6.32031 11.0449 7.36133 10.4102 7.99609L7.0332 11.373C6.39844 12.0078 5.35742 12.0078 4.72266 11.373L0.457031 7.10742C0.152344 6.80273 0 6.39648 0 5.96484ZM2.84375 2.96875C2.38672 2.96875 2.03125 3.34961 2.03125 3.78125C2.03125 4.23828 2.38672 4.59375 2.84375 4.59375C3.27539 4.59375 3.65625 4.23828 3.65625 3.78125C3.65625 3.34961 3.27539 2.96875 2.84375 2.96875Z" fill="#5E6E82"/>
</svg>
