<svg width="11" height="12" viewBox="0 0 11 12" fill="none" xmlns="http://www.w3.org/2000/svg">
<path d="M10.5273 1.25586C11 1.72852 11 2.48047 10.5273 2.95312L9.88281 3.59766L7.77734 1.49219L8.42188 0.847656C8.89453 0.375 9.64648 0.375 10.1191 0.847656L10.5273 1.25586ZM3.69531 5.57422L7.2832 1.98633L9.38867 4.0918L5.80078 7.67969C5.67188 7.80859 5.5 7.91602 5.32812 7.98047L3.41602 8.60352C3.22266 8.66797 3.0293 8.625 2.90039 8.47461C2.75 8.3457 2.70703 8.13086 2.77148 7.95898L3.39453 6.04688C3.45898 5.875 3.56641 5.70312 3.69531 5.57422ZM4.125 1.75C4.49023 1.75 4.8125 2.07227 4.8125 2.4375C4.8125 2.82422 4.49023 3.125 4.125 3.125H2.0625C1.67578 3.125 1.375 3.44727 1.375 3.8125V9.3125C1.375 9.69922 1.67578 10 2.0625 10H7.5625C7.92773 10 8.25 9.69922 8.25 9.3125V7.25C8.25 6.88477 8.55078 6.5625 8.9375 6.5625C9.30273 6.5625 9.625 6.88477 9.625 7.25V9.3125C9.625 10.4512 8.70117 11.375 7.5625 11.375H2.0625C0.902344 11.375 0 10.4512 0 9.3125V3.8125C0 2.67383 0.902344 1.75 2.0625 1.75H4.125Z" fill="#4D5969"/>
</svg>
