<svg width="26" height="23" viewBox="0 0 26 23" fill="none" xmlns="http://www.w3.org/2000/svg">
<path d="M5.39909 21.4627C4.7994 22.1304 3.76289 22.1914 3.17518 21.5131C1.81855 19.9475 0.850358 18.0738 0.361526 16.0445C-0.254688 13.4864 -0.0801548 10.8016 0.862057 8.34486C1.80427 5.88811 3.4698 3.7751 5.63852 2.28512C7.80724 0.795141 10.377 -0.00167113 13.0083 2.63016e-06C15.6395 0.00167639 18.2083 0.801757 20.3751 2.2945C22.5419 3.78724 24.2048 5.90236 25.1439 8.3603C26.0829 10.8182 26.2541 13.5033 25.6346 16.0606C25.1432 18.0892 24.1726 19.9617 22.814 21.5256C22.2254 22.2031 21.189 22.1408 20.5901 21.4723C19.9913 20.8039 20.0606 19.7835 20.6204 19.0821C21.5037 17.9754 22.1395 16.6842 22.4759 15.2954C22.9405 13.3775 22.8122 11.3637 22.1079 9.52023C21.4036 7.67677 20.1564 6.09043 18.5313 4.97087C16.9062 3.85132 14.9796 3.25126 13.0062 3.25C11.0328 3.24875 9.10543 3.84636 7.47889 4.96384C5.85235 6.08133 4.6032 7.66608 3.89654 9.50864C3.18988 11.3512 3.05898 13.3648 3.52114 15.2834C3.85579 16.6726 4.48997 17.9646 5.37183 19.0724C5.93077 19.7745 5.99879 20.795 5.39909 21.4627Z" fill="#EDF2F9"/>
<path d="M5.39468 21.4587C4.79464 22.1261 3.7581 22.1866 3.17074 21.508C1.80991 19.9358 0.840633 18.0536 0.354621 16.0157C-0.257569 13.4487 -0.0739949 10.7561 0.880944 8.29591C1.83588 5.83572 3.51696 3.72442 5.70072 2.24266C7.88447 0.760889 10.4675 -0.0211684 13.1064 0.000435617C15.7454 0.0220397 18.3152 0.846282 20.4744 2.3636C22.6336 3.88093 24.2799 6.01946 25.1944 8.49496C26.109 10.9704 26.2484 13.6657 25.5943 16.2223C25.075 18.252 24.075 20.1181 22.6886 21.6678C22.0903 22.3366 21.0548 22.2592 20.4658 21.5821C19.8768 20.905 19.961 19.8857 20.531 19.1925C21.4339 18.0944 22.0901 16.8067 22.4457 15.4167C22.9363 13.4992 22.8317 11.4778 22.1458 9.62122C21.4599 7.7646 20.2252 6.16069 18.6058 5.0227C16.9864 3.88471 15.059 3.26653 13.0798 3.25033C11.1006 3.23412 9.16336 3.82067 7.52554 4.93199C5.88772 6.04332 4.62691 7.62679 3.91071 9.47193C3.1945 11.3171 3.05682 13.3365 3.51597 15.2618C3.8488 16.6574 4.48382 17.9556 5.36866 19.0684C5.92724 19.7708 5.99473 20.7913 5.39468 21.4587Z" fill="#E63757"/>
</svg>
