<svg width="13" height="14" viewBox="0 0 13 14" fill="none" xmlns="http://www.w3.org/2000/svg">
<path d="M6.5 13.125C2.89453 13.125 0 10.2305 0 6.625C0 3.04492 2.89453 0.125 6.5 0.125C10.0801 0.125 13 3.04492 13 6.625C13 10.2305 10.0801 13.125 6.5 13.125ZM5.89062 6.625C5.89062 6.82812 5.99219 7.03125 6.14453 7.13281L8.58203 8.75781C8.86133 8.96094 9.24219 8.88477 9.41992 8.60547C9.62305 8.32617 9.54688 7.94531 9.26758 7.74219L7.10938 6.32031V3.17188C7.10938 2.8418 6.83008 2.5625 6.47461 2.5625C6.14453 2.5625 5.86523 2.8418 5.86523 3.17188L5.89062 6.625Z" fill="#4D5969"/>
</svg>
