<svg width="109" height="30" viewBox="0 0 109 30" fill="none" xmlns="http://www.w3.org/2000/svg">
<rect width="109" height="30" rx="15" fill="#00D27A"/>
<path d="M22.3604 15.463C22.3604 14.579 22.5641 13.786 22.9714 13.084C23.3874 12.382 23.9464 11.836 24.6484 11.446C25.3591 11.0473 26.1347 10.848 26.9754 10.848C27.9374 10.848 28.7911 11.0863 29.5364 11.563C30.2904 12.031 30.8364 12.6983 31.1744 13.565H29.3934C29.1594 13.0883 28.8344 12.733 28.4184 12.499C28.0024 12.265 27.5214 12.148 26.9754 12.148C26.3774 12.148 25.8444 12.2823 25.3764 12.551C24.9084 12.8197 24.5401 13.2053 24.2714 13.708C24.0114 14.2107 23.8814 14.7957 23.8814 15.463C23.8814 16.1303 24.0114 16.7153 24.2714 17.218C24.5401 17.7207 24.9084 18.1107 25.3764 18.388C25.8444 18.6567 26.3774 18.791 26.9754 18.791C27.5214 18.791 28.0024 18.674 28.4184 18.44C28.8344 18.206 29.1594 17.8507 29.3934 17.374H31.1744C30.8364 18.2407 30.2904 18.908 29.5364 19.376C28.7911 19.844 27.9374 20.078 26.9754 20.078C26.1261 20.078 25.3504 19.883 24.6484 19.493C23.9464 19.0943 23.3874 18.544 22.9714 17.842C22.5641 17.14 22.3604 16.347 22.3604 15.463ZM36.0161 20.117C35.3401 20.117 34.7291 19.9653 34.1831 19.662C33.6371 19.35 33.2081 18.9167 32.8961 18.362C32.5841 17.7987 32.4281 17.1487 32.4281 16.412C32.4281 15.684 32.5884 15.0383 32.9091 14.475C33.2297 13.9117 33.6674 13.4783 34.2221 13.175C34.7767 12.8717 35.3964 12.72 36.0811 12.72C36.7657 12.72 37.3854 12.8717 37.9401 13.175C38.4947 13.4783 38.9324 13.9117 39.2531 14.475C39.5737 15.0383 39.7341 15.684 39.7341 16.412C39.7341 17.14 39.5694 17.7857 39.2401 18.349C38.9107 18.9123 38.4601 19.35 37.8881 19.662C37.3247 19.9653 36.7007 20.117 36.0161 20.117ZM36.0161 18.83C36.3974 18.83 36.7527 18.739 37.0821 18.557C37.4201 18.375 37.6931 18.102 37.9011 17.738C38.1091 17.374 38.2131 16.932 38.2131 16.412C38.2131 15.892 38.1134 15.4543 37.9141 15.099C37.7147 14.735 37.4504 14.462 37.1211 14.28C36.7917 14.098 36.4364 14.007 36.0551 14.007C35.6737 14.007 35.3184 14.098 34.9891 14.28C34.6684 14.462 34.4127 14.735 34.2221 15.099C34.0314 15.4543 33.9361 15.892 33.9361 16.412C33.9361 17.1833 34.1311 17.7813 34.5211 18.206C34.9197 18.622 35.4181 18.83 36.0161 18.83ZM49.8701 12.72C50.4335 12.72 50.9361 12.837 51.3781 13.071C51.8288 13.305 52.1798 13.6517 52.4311 14.111C52.6911 14.5703 52.8211 15.125 52.8211 15.775V20H51.3521V15.996C51.3521 15.3547 51.1918 14.865 50.8711 14.527C50.5505 14.1803 50.1128 14.007 49.5581 14.007C49.0035 14.007 48.5615 14.1803 48.2321 14.527C47.9115 14.865 47.7511 15.3547 47.7511 15.996V20H46.2821V15.996C46.2821 15.3547 46.1218 14.865 45.8011 14.527C45.4805 14.1803 45.0428 14.007 44.4881 14.007C43.9335 14.007 43.4915 14.1803 43.1621 14.527C42.8415 14.865 42.6811 15.3547 42.6811 15.996V20H41.1991V12.837H42.6811V13.656C42.9238 13.3613 43.2315 13.1317 43.6041 12.967C43.9768 12.8023 44.3755 12.72 44.8001 12.72C45.3721 12.72 45.8835 12.8413 46.3341 13.084C46.7848 13.3267 47.1315 13.6777 47.3741 14.137C47.5908 13.7037 47.9288 13.3613 48.3881 13.11C48.8475 12.85 49.3415 12.72 49.8701 12.72ZM56.1889 13.89C56.4403 13.5607 56.7826 13.2833 57.2159 13.058C57.6493 12.8327 58.1389 12.72 58.6849 12.72C59.3089 12.72 59.8766 12.876 60.3879 13.188C60.9079 13.4913 61.3153 13.9203 61.6099 14.475C61.9046 15.0297 62.0519 15.6667 62.0519 16.386C62.0519 17.1053 61.9046 17.751 61.6099 18.323C61.3153 18.8863 60.9079 19.3283 60.3879 19.649C59.8766 19.961 59.3089 20.117 58.6849 20.117C58.1389 20.117 57.6536 20.0087 57.2289 19.792C56.8043 19.5667 56.4576 19.2893 56.1889 18.96V23.406H54.7069V12.837H56.1889V13.89ZM60.5439 16.386C60.5439 15.892 60.4399 15.4673 60.2319 15.112C60.0326 14.748 59.7639 14.475 59.4259 14.293C59.0966 14.1023 58.7413 14.007 58.3599 14.007C57.9873 14.007 57.6319 14.1023 57.2939 14.293C56.9646 14.4837 56.6959 14.761 56.4879 15.125C56.2886 15.489 56.1889 15.918 56.1889 16.412C56.1889 16.906 56.2886 17.3393 56.4879 17.712C56.6959 18.076 56.9646 18.3533 57.2939 18.544C57.6319 18.7347 57.9873 18.83 58.3599 18.83C58.7413 18.83 59.0966 18.7347 59.4259 18.544C59.7639 18.3447 60.0326 18.0587 60.2319 17.686C60.4399 17.3133 60.5439 16.88 60.5439 16.386ZM64.9995 10.38V20H63.5175V10.38H64.9995ZM73.5102 16.243C73.5102 16.5117 73.4929 16.7543 73.4582 16.971H67.9852C68.0285 17.543 68.2409 18.0023 68.6222 18.349C69.0035 18.6957 69.4715 18.869 70.0262 18.869C70.8235 18.869 71.3869 18.5353 71.7162 17.868H73.3152C73.0985 18.5267 72.7042 19.0683 72.1322 19.493C71.5689 19.909 70.8669 20.117 70.0262 20.117C69.3415 20.117 68.7262 19.9653 68.1802 19.662C67.6429 19.35 67.2182 18.9167 66.9062 18.362C66.6029 17.7987 66.4512 17.1487 66.4512 16.412C66.4512 15.6753 66.5985 15.0297 66.8932 14.475C67.1965 13.9117 67.6169 13.4783 68.1542 13.175C68.7002 12.8717 69.3242 12.72 70.0262 12.72C70.7022 12.72 71.3045 12.8673 71.8332 13.162C72.3619 13.4567 72.7735 13.8727 73.0682 14.41C73.3629 14.9387 73.5102 15.5497 73.5102 16.243ZM71.9632 15.775C71.9545 15.229 71.7595 14.7913 71.3782 14.462C70.9969 14.1327 70.5245 13.968 69.9612 13.968C69.4499 13.968 69.0122 14.1327 68.6482 14.462C68.2842 14.7827 68.0675 15.2203 67.9982 15.775H71.9632ZM76.6977 14.046V18.011C76.6977 18.2797 76.7583 18.4747 76.8797 18.596C77.0097 18.7087 77.2263 18.765 77.5297 18.765H78.4397V20H77.2697C76.6023 20 76.091 19.844 75.7357 19.532C75.3803 19.22 75.2027 18.713 75.2027 18.011V14.046H74.3577V12.837H75.2027V11.056H76.6977V12.837H78.4397V14.046H76.6977ZM82.9126 20.117C82.2366 20.117 81.6256 19.9653 81.0796 19.662C80.5336 19.35 80.1046 18.9167 79.7926 18.362C79.4806 17.7987 79.3246 17.1487 79.3246 16.412C79.3246 15.684 79.4849 15.0383 79.8056 14.475C80.1262 13.9117 80.5639 13.4783 81.1186 13.175C81.6732 12.8717 82.2929 12.72 82.9776 12.72C83.6622 12.72 84.2819 12.8717 84.8366 13.175C85.3912 13.4783 85.8289 13.9117 86.1496 14.475C86.4702 15.0383 86.6306 15.684 86.6306 16.412C86.6306 17.14 86.4659 17.7857 86.1366 18.349C85.8072 18.9123 85.3566 19.35 84.7846 19.662C84.2212 19.9653 83.5972 20.117 82.9126 20.117ZM82.9126 18.83C83.2939 18.83 83.6492 18.739 83.9786 18.557C84.3166 18.375 84.5896 18.102 84.7976 17.738C85.0056 17.374 85.1096 16.932 85.1096 16.412C85.1096 15.892 85.0099 15.4543 84.8106 15.099C84.6112 14.735 84.3469 14.462 84.0176 14.28C83.6882 14.098 83.3329 14.007 82.9516 14.007C82.5702 14.007 82.2149 14.098 81.8856 14.28C81.5649 14.462 81.3092 14.735 81.1186 15.099C80.9279 15.4543 80.8326 15.892 80.8326 16.412C80.8326 17.1833 81.0276 17.7813 81.4176 18.206C81.8162 18.622 82.3146 18.83 82.9126 18.83Z" fill="white"/>
</svg>
