<svg width="75" height="21" viewBox="0 0 75 21" fill="none" xmlns="http://www.w3.org/2000/svg">
<rect x="0.5" y="0.5" width="74" height="20" rx="10" fill="#828282"/>
<rect x="0.5" y="0.5" width="74" height="20" rx="10" stroke="#828282"/>
<path d="M16.84 7.05V7.98H13.89V10.03H16.19V10.96H13.89V14H12.75V7.05H16.84ZM18.4765 7.76C18.2698 7.76 18.0965 7.69 17.9565 7.55C17.8165 7.41 17.7465 7.23667 17.7465 7.03C17.7465 6.82333 17.8165 6.65 17.9565 6.51C18.0965 6.37 18.2698 6.3 18.4765 6.3C18.6765 6.3 18.8465 6.37 18.9865 6.51C19.1265 6.65 19.1965 6.82333 19.1965 7.03C19.1965 7.23667 19.1265 7.41 18.9865 7.55C18.8465 7.69 18.6765 7.76 18.4765 7.76ZM19.0365 8.49V14H17.8965V8.49H19.0365ZM23.3132 8.4C23.7465 8.4 24.1332 8.49 24.4732 8.67C24.8199 8.85 25.0899 9.11667 25.2832 9.47C25.4765 9.82333 25.5732 10.25 25.5732 10.75V14H24.4432V10.92C24.4432 10.4267 24.3199 10.05 24.0732 9.79C23.8265 9.52333 23.4899 9.39 23.0632 9.39C22.6365 9.39 22.2965 9.52333 22.0432 9.79C21.7965 10.05 21.6732 10.4267 21.6732 10.92V14H20.5332V8.49H21.6732V9.12C21.8599 8.89333 22.0965 8.71667 22.3832 8.59C22.6765 8.46333 22.9865 8.4 23.3132 8.4ZM26.6473 11.22C26.6473 10.6667 26.7607 10.1767 26.9873 9.75C27.2207 9.32333 27.534 8.99333 27.9273 8.76C28.3273 8.52 28.7673 8.4 29.2473 8.4C29.6807 8.4 30.0573 8.48667 30.3773 8.66C30.704 8.82667 30.964 9.03667 31.1573 9.29V8.49H32.3073V14H31.1573V13.18C30.964 13.44 30.7007 13.6567 30.3673 13.83C30.034 14.0033 29.654 14.09 29.2273 14.09C28.754 14.09 28.3207 13.97 27.9273 13.73C27.534 13.4833 27.2207 13.1433 26.9873 12.71C26.7607 12.27 26.6473 11.7733 26.6473 11.22ZM31.1573 11.24C31.1573 10.86 31.0773 10.53 30.9173 10.25C30.764 9.97 30.5607 9.75667 30.3073 9.61C30.054 9.46333 29.7807 9.39 29.4873 9.39C29.194 9.39 28.9207 9.46333 28.6673 9.61C28.414 9.75 28.2073 9.96 28.0473 10.24C27.894 10.5133 27.8173 10.84 27.8173 11.22C27.8173 11.6 27.894 11.9333 28.0473 12.22C28.2073 12.5067 28.414 12.7267 28.6673 12.88C28.9273 13.0267 29.2007 13.1 29.4873 13.1C29.7807 13.1 30.054 13.0267 30.3073 12.88C30.5607 12.7333 30.764 12.52 30.9173 12.24C31.0773 11.9533 31.1573 11.62 31.1573 11.24ZM34.9447 6.6V14H33.8047V6.6H34.9447ZM37.0214 7.76C36.8147 7.76 36.6414 7.69 36.5014 7.55C36.3614 7.41 36.2914 7.23667 36.2914 7.03C36.2914 6.82333 36.3614 6.65 36.5014 6.51C36.6414 6.37 36.8147 6.3 37.0214 6.3C37.2214 6.3 37.3914 6.37 37.5314 6.51C37.6714 6.65 37.7414 6.82333 37.7414 7.03C37.7414 7.23667 37.6714 7.41 37.5314 7.55C37.3914 7.69 37.2214 7.76 37.0214 7.76ZM37.5814 8.49V14H36.4414V8.49H37.5814ZM40.0881 13.07H42.5881V14H38.7681V13.07L41.2781 9.42H38.7681V8.49H42.5881V9.42L40.0881 13.07ZM43.4052 11.22C43.4052 10.6667 43.5185 10.1767 43.7452 9.75C43.9785 9.32333 44.2918 8.99333 44.6852 8.76C45.0852 8.52 45.5252 8.4 46.0052 8.4C46.4385 8.4 46.8152 8.48667 47.1352 8.66C47.4618 8.82667 47.7218 9.03667 47.9152 9.29V8.49H49.0652V14H47.9152V13.18C47.7218 13.44 47.4585 13.6567 47.1252 13.83C46.7918 14.0033 46.4118 14.09 45.9852 14.09C45.5118 14.09 45.0785 13.97 44.6852 13.73C44.2918 13.4833 43.9785 13.1433 43.7452 12.71C43.5185 12.27 43.4052 11.7733 43.4052 11.22ZM47.9152 11.24C47.9152 10.86 47.8352 10.53 47.6752 10.25C47.5218 9.97 47.3185 9.75667 47.0652 9.61C46.8118 9.46333 46.5385 9.39 46.2452 9.39C45.9518 9.39 45.6785 9.46333 45.4252 9.61C45.1718 9.75 44.9652 9.96 44.8052 10.24C44.6518 10.5133 44.5752 10.84 44.5752 11.22C44.5752 11.6 44.6518 11.9333 44.8052 12.22C44.9652 12.5067 45.1718 12.7267 45.4252 12.88C45.6852 13.0267 45.9585 13.1 46.2452 13.1C46.5385 13.1 46.8118 13.0267 47.0652 12.88C47.3185 12.7333 47.5218 12.52 47.6752 12.24C47.8352 11.9533 47.9152 11.62 47.9152 11.24ZM50.1825 11.22C50.1825 10.6667 50.2958 10.1767 50.5225 9.75C50.7558 9.32333 51.0692 8.99333 51.4625 8.76C51.8625 8.52 52.3058 8.4 52.7925 8.4C53.1525 8.4 53.5058 8.48 53.8525 8.64C54.2058 8.79333 54.4858 9 54.6925 9.26V6.6H55.8425V14H54.6925V13.17C54.5058 13.4367 54.2458 13.6567 53.9125 13.83C53.5858 14.0033 53.2092 14.09 52.7825 14.09C52.3025 14.09 51.8625 13.97 51.4625 13.73C51.0692 13.4833 50.7558 13.1433 50.5225 12.71C50.2958 12.27 50.1825 11.7733 50.1825 11.22ZM54.6925 11.24C54.6925 10.86 54.6125 10.53 54.4525 10.25C54.2992 9.97 54.0958 9.75667 53.8425 9.61C53.5892 9.46333 53.3158 9.39 53.0225 9.39C52.7292 9.39 52.4558 9.46333 52.2025 9.61C51.9492 9.75 51.7425 9.96 51.5825 10.24C51.4292 10.5133 51.3525 10.84 51.3525 11.22C51.3525 11.6 51.4292 11.9333 51.5825 12.22C51.7425 12.5067 51.9492 12.7267 52.2025 12.88C52.4625 13.0267 52.7358 13.1 53.0225 13.1C53.3158 13.1 53.5892 13.0267 53.8425 12.88C54.0958 12.7333 54.2992 12.52 54.4525 12.24C54.6125 11.9533 54.6925 11.62 54.6925 11.24ZM59.7298 14.09C59.2098 14.09 58.7398 13.9733 58.3198 13.74C57.8998 13.5 57.5698 13.1667 57.3298 12.74C57.0898 12.3067 56.9698 11.8067 56.9698 11.24C56.9698 10.68 57.0932 10.1833 57.3398 9.75C57.5865 9.31667 57.9232 8.98333 58.3498 8.75C58.7765 8.51667 59.2532 8.4 59.7798 8.4C60.3065 8.4 60.7832 8.51667 61.2098 8.75C61.6365 8.98333 61.9732 9.31667 62.2198 9.75C62.4665 10.1833 62.5898 10.68 62.5898 11.24C62.5898 11.8 62.4632 12.2967 62.2098 12.73C61.9565 13.1633 61.6098 13.5 61.1698 13.74C60.7365 13.9733 60.2565 14.09 59.7298 14.09ZM59.7298 13.1C60.0232 13.1 60.2965 13.03 60.5498 12.89C60.8098 12.75 61.0198 12.54 61.1798 12.26C61.3398 11.98 61.4198 11.64 61.4198 11.24C61.4198 10.84 61.3432 10.5033 61.1898 10.23C61.0365 9.95 60.8332 9.74 60.5798 9.6C60.3265 9.46 60.0532 9.39 59.7598 9.39C59.4665 9.39 59.1932 9.46 58.9398 9.6C58.6932 9.74 58.4965 9.95 58.3498 10.23C58.2032 10.5033 58.1298 10.84 58.1298 11.24C58.1298 11.8333 58.2798 12.2933 58.5798 12.62C58.8865 12.94 59.2698 13.1 59.7298 13.1Z" fill="white"/>
</svg>
