<svg width="75" height="21" viewBox="0 0 75 21" fill="none" xmlns="http://www.w3.org/2000/svg">
<rect x="0.5" y="0.5" width="74" height="20" rx="10" fill="#F5803E"/>
<rect x="0.5" y="0.5" width="74" height="20" rx="10" stroke="#F5803E"/>
<path d="M10.96 14H9.82L6.39 8.81V14H5.25V7.04H6.39L9.82 12.22V7.04H10.96V14ZM14.847 14.09C14.327 14.09 13.857 13.9733 13.437 13.74C13.017 13.5 12.687 13.1667 12.447 12.74C12.207 12.3067 12.087 11.8067 12.087 11.24C12.087 10.68 12.2104 10.1833 12.457 9.75C12.7037 9.31667 13.0404 8.98333 13.467 8.75C13.8937 8.51667 14.3704 8.4 14.897 8.4C15.4237 8.4 15.9004 8.51667 16.327 8.75C16.7537 8.98333 17.0904 9.31667 17.337 9.75C17.5837 10.1833 17.707 10.68 17.707 11.24C17.707 11.8 17.5804 12.2967 17.327 12.73C17.0737 13.1633 16.727 13.5 16.287 13.74C15.8537 13.9733 15.3737 14.09 14.847 14.09ZM14.847 13.1C15.1404 13.1 15.4137 13.03 15.667 12.89C15.927 12.75 16.137 12.54 16.297 12.26C16.457 11.98 16.537 11.64 16.537 11.24C16.537 10.84 16.4604 10.5033 16.307 10.23C16.1537 9.95 15.9504 9.74 15.697 9.6C15.4437 9.46 15.1704 9.39 14.877 9.39C14.5837 9.39 14.3104 9.46 14.057 9.6C13.8104 9.74 13.6137 9.95 13.467 10.23C13.3204 10.5033 13.247 10.84 13.247 11.24C13.247 11.8333 13.397 12.2933 13.697 12.62C14.0037 12.94 14.387 13.1 14.847 13.1ZM23.7416 9.42H22.7216V14H21.5716V9.42H20.9216V8.49H21.5716V8.1C21.5716 7.46667 21.7383 7.00667 22.0716 6.72C22.4116 6.42667 22.9416 6.28 23.6616 6.28V7.23C23.315 7.23 23.0716 7.29667 22.9316 7.43C22.7916 7.55667 22.7216 7.78 22.7216 8.1V8.49H23.7416V9.42ZM25.332 7.76C25.1253 7.76 24.952 7.69 24.812 7.55C24.672 7.41 24.602 7.23667 24.602 7.03C24.602 6.82333 24.672 6.65 24.812 6.51C24.952 6.37 25.1253 6.3 25.332 6.3C25.532 6.3 25.702 6.37 25.842 6.51C25.982 6.65 26.052 6.82333 26.052 7.03C26.052 7.23667 25.982 7.41 25.842 7.55C25.702 7.69 25.532 7.76 25.332 7.76ZM25.892 8.49V14H24.752V8.49H25.892ZM30.1687 8.4C30.602 8.4 30.9887 8.49 31.3287 8.67C31.6753 8.85 31.9453 9.11667 32.1387 9.47C32.332 9.82333 32.4287 10.25 32.4287 10.75V14H31.2987V10.92C31.2987 10.4267 31.1753 10.05 30.9287 9.79C30.682 9.52333 30.3453 9.39 29.9187 9.39C29.492 9.39 29.152 9.52333 28.8987 9.79C28.652 10.05 28.5287 10.4267 28.5287 10.92V14H27.3887V8.49H28.5287V9.12C28.7153 8.89333 28.952 8.71667 29.2387 8.59C29.532 8.46333 29.842 8.4 30.1687 8.4ZM33.5028 11.22C33.5028 10.6667 33.6161 10.1767 33.8428 9.75C34.0761 9.32333 34.3895 8.99333 34.7828 8.76C35.1828 8.52 35.6228 8.4 36.1028 8.4C36.5361 8.4 36.9128 8.48667 37.2328 8.66C37.5595 8.82667 37.8195 9.03667 38.0128 9.29V8.49H39.1628V14H38.0128V13.18C37.8195 13.44 37.5561 13.6567 37.2228 13.83C36.8895 14.0033 36.5095 14.09 36.0828 14.09C35.6095 14.09 35.1761 13.97 34.7828 13.73C34.3895 13.4833 34.0761 13.1433 33.8428 12.71C33.6161 12.27 33.5028 11.7733 33.5028 11.22ZM38.0128 11.24C38.0128 10.86 37.9328 10.53 37.7728 10.25C37.6195 9.97 37.4161 9.75667 37.1628 9.61C36.9095 9.46333 36.6361 9.39 36.3428 9.39C36.0495 9.39 35.7761 9.46333 35.5228 9.61C35.2695 9.75 35.0628 9.96 34.9028 10.24C34.7495 10.5133 34.6728 10.84 34.6728 11.22C34.6728 11.6 34.7495 11.9333 34.9028 12.22C35.0628 12.5067 35.2695 12.7267 35.5228 12.88C35.7828 13.0267 36.0561 13.1 36.3428 13.1C36.6361 13.1 36.9095 13.0267 37.1628 12.88C37.4161 12.7333 37.6195 12.52 37.7728 12.24C37.9328 11.9533 38.0128 11.62 38.0128 11.24ZM41.8002 6.6V14H40.6602V6.6H41.8002ZM43.8769 7.76C43.6702 7.76 43.4969 7.69 43.3569 7.55C43.2169 7.41 43.1469 7.23667 43.1469 7.03C43.1469 6.82333 43.2169 6.65 43.3569 6.51C43.4969 6.37 43.6702 6.3 43.8769 6.3C44.0769 6.3 44.2469 6.37 44.3869 6.51C44.5269 6.65 44.5969 6.82333 44.5969 7.03C44.5969 7.23667 44.5269 7.41 44.3869 7.55C44.2469 7.69 44.0769 7.76 43.8769 7.76ZM44.4369 8.49V14H43.2969V8.49H44.4369ZM46.9436 13.07H49.4436V14H45.6236V13.07L48.1336 9.42H45.6236V8.49H49.4436V9.42L46.9436 13.07ZM50.2606 11.22C50.2606 10.6667 50.374 10.1767 50.6006 9.75C50.834 9.32333 51.1473 8.99333 51.5406 8.76C51.9406 8.52 52.3806 8.4 52.8606 8.4C53.294 8.4 53.6706 8.48667 53.9906 8.66C54.3173 8.82667 54.5773 9.03667 54.7706 9.29V8.49H55.9206V14H54.7706V13.18C54.5773 13.44 54.314 13.6567 53.9806 13.83C53.6473 14.0033 53.2673 14.09 52.8406 14.09C52.3673 14.09 51.934 13.97 51.5406 13.73C51.1473 13.4833 50.834 13.1433 50.6006 12.71C50.374 12.27 50.2606 11.7733 50.2606 11.22ZM54.7706 11.24C54.7706 10.86 54.6906 10.53 54.5306 10.25C54.3773 9.97 54.174 9.75667 53.9206 9.61C53.6673 9.46333 53.394 9.39 53.1006 9.39C52.8073 9.39 52.534 9.46333 52.2806 9.61C52.0273 9.75 51.8206 9.96 51.6606 10.24C51.5073 10.5133 51.4306 10.84 51.4306 11.22C51.4306 11.6 51.5073 11.9333 51.6606 12.22C51.8206 12.5067 52.0273 12.7267 52.2806 12.88C52.5406 13.0267 52.814 13.1 53.1006 13.1C53.394 13.1 53.6673 13.0267 53.9206 12.88C54.174 12.7333 54.3773 12.52 54.5306 12.24C54.6906 11.9533 54.7706 11.62 54.7706 11.24ZM57.038 11.22C57.038 10.6667 57.1513 10.1767 57.378 9.75C57.6113 9.32333 57.9246 8.99333 58.318 8.76C58.718 8.52 59.1613 8.4 59.648 8.4C60.008 8.4 60.3613 8.48 60.708 8.64C61.0613 8.79333 61.3413 9 61.548 9.26V6.6H62.698V14H61.548V13.17C61.3613 13.4367 61.1013 13.6567 60.768 13.83C60.4413 14.0033 60.0646 14.09 59.638 14.09C59.158 14.09 58.718 13.97 58.318 13.73C57.9246 13.4833 57.6113 13.1433 57.378 12.71C57.1513 12.27 57.038 11.7733 57.038 11.22ZM61.548 11.24C61.548 10.86 61.468 10.53 61.308 10.25C61.1546 9.97 60.9513 9.75667 60.698 9.61C60.4446 9.46333 60.1713 9.39 59.878 9.39C59.5846 9.39 59.3113 9.46333 59.058 9.61C58.8046 9.75 58.598 9.96 58.438 10.24C58.2846 10.5133 58.208 10.84 58.208 11.22C58.208 11.6 58.2846 11.9333 58.438 12.22C58.598 12.5067 58.8046 12.7267 59.058 12.88C59.318 13.0267 59.5913 13.1 59.878 13.1C60.1713 13.1 60.4446 13.0267 60.698 12.88C60.9513 12.7333 61.1546 12.52 61.308 12.24C61.468 11.9533 61.548 11.62 61.548 11.24ZM66.5853 14.09C66.0653 14.09 65.5953 13.9733 65.1753 13.74C64.7553 13.5 64.4253 13.1667 64.1853 12.74C63.9453 12.3067 63.8253 11.8067 63.8253 11.24C63.8253 10.68 63.9486 10.1833 64.1953 9.75C64.442 9.31667 64.7786 8.98333 65.2053 8.75C65.632 8.51667 66.1086 8.4 66.6353 8.4C67.162 8.4 67.6386 8.51667 68.0653 8.75C68.492 8.98333 68.8286 9.31667 69.0753 9.75C69.322 10.1833 69.4453 10.68 69.4453 11.24C69.4453 11.8 69.3186 12.2967 69.0653 12.73C68.812 13.1633 68.4653 13.5 68.0253 13.74C67.592 13.9733 67.112 14.09 66.5853 14.09ZM66.5853 13.1C66.8786 13.1 67.152 13.03 67.4053 12.89C67.6653 12.75 67.8753 12.54 68.0353 12.26C68.1953 11.98 68.2753 11.64 68.2753 11.24C68.2753 10.84 68.1986 10.5033 68.0453 10.23C67.892 9.95 67.6886 9.74 67.4353 9.6C67.182 9.46 66.9086 9.39 66.6153 9.39C66.322 9.39 66.0486 9.46 65.7953 9.6C65.5486 9.74 65.352 9.95 65.2053 10.23C65.0586 10.5033 64.9853 10.84 64.9853 11.24C64.9853 11.8333 65.1353 12.2933 65.4353 12.62C65.742 12.94 66.1253 13.1 66.5853 13.1Z" fill="white"/>
</svg>
