<svg width="49" height="22" viewBox="0 0 49 22" fill="none" xmlns="http://www.w3.org/2000/svg">
<rect x="0.5" y="1" width="48" height="20" rx="10" fill="#E63757"/>
<rect x="0.5" y="1" width="48" height="20" rx="10" stroke="#E63757"/>
<path d="M14.02 7.55C14.76 7.55 15.4067 7.69333 15.96 7.98C16.52 8.26 16.95 8.66667 17.25 9.2C17.5567 9.72667 17.71 10.3433 17.71 11.05C17.71 11.7567 17.5567 12.37 17.25 12.89C16.95 13.41 16.52 13.81 15.96 14.09C15.4067 14.3633 14.76 14.5 14.02 14.5H11.75V7.55H14.02ZM14.02 13.57C14.8333 13.57 15.4567 13.35 15.89 12.91C16.3233 12.47 16.54 11.85 16.54 11.05C16.54 10.2433 16.3233 9.61333 15.89 9.16C15.4567 8.70667 14.8333 8.48 14.02 8.48H12.89V13.57H14.02ZM23.8898 11.61C23.8898 11.8167 23.8765 12.0033 23.8498 12.17H19.6398C19.6732 12.61 19.8365 12.9633 20.1298 13.23C20.4232 13.4967 20.7832 13.63 21.2098 13.63C21.8232 13.63 22.2565 13.3733 22.5098 12.86H23.7398C23.5732 13.3667 23.2698 13.7833 22.8298 14.11C22.3965 14.43 21.8565 14.59 21.2098 14.59C20.6832 14.59 20.2098 14.4733 19.7898 14.24C19.3765 14 19.0498 13.6667 18.8098 13.24C18.5765 12.8067 18.4598 12.3067 18.4598 11.74C18.4598 11.1733 18.5732 10.6767 18.7998 10.25C19.0332 9.81667 19.3565 9.48333 19.7698 9.25C20.1898 9.01667 20.6698 8.9 21.2098 8.9C21.7298 8.9 22.1932 9.01333 22.5998 9.24C23.0065 9.46667 23.3232 9.78667 23.5498 10.2C23.7765 10.6067 23.8898 11.0767 23.8898 11.61ZM22.6998 11.25C22.6932 10.83 22.5432 10.4933 22.2498 10.24C21.9565 9.98667 21.5932 9.86 21.1598 9.86C20.7665 9.86 20.4298 9.98667 20.1498 10.24C19.8698 10.4867 19.7032 10.8233 19.6498 11.25H22.6998ZM26.1517 9.81C26.3451 9.54333 26.6084 9.32667 26.9417 9.16C27.2817 8.98667 27.6584 8.9 28.0717 8.9C28.5584 8.9 28.9984 9.01667 29.3917 9.25C29.7851 9.48333 30.0951 9.81667 30.3217 10.25C30.5484 10.6767 30.6617 11.1667 30.6617 11.72C30.6617 12.2733 30.5484 12.77 30.3217 13.21C30.0951 13.6433 29.7817 13.9833 29.3817 14.23C28.9884 14.47 28.5517 14.59 28.0717 14.59C27.6451 14.59 27.2651 14.5067 26.9317 14.34C26.6051 14.1733 26.3451 13.96 26.1517 13.7V14.5H25.0117V7.1H26.1517V9.81ZM29.5017 11.72C29.5017 11.34 29.4217 11.0133 29.2617 10.74C29.1084 10.46 28.9017 10.25 28.6417 10.11C28.3884 9.96333 28.1151 9.89 27.8217 9.89C27.5351 9.89 27.2617 9.96333 27.0017 10.11C26.7484 10.2567 26.5417 10.47 26.3817 10.75C26.2284 11.03 26.1517 11.36 26.1517 11.74C26.1517 12.12 26.2284 12.4533 26.3817 12.74C26.5417 13.02 26.7484 13.2333 27.0017 13.38C27.2617 13.5267 27.5351 13.6 27.8217 13.6C28.1151 13.6 28.3884 13.5267 28.6417 13.38C28.9017 13.2267 29.1084 13.0067 29.2617 12.72C29.4217 12.4333 29.5017 12.1 29.5017 11.72ZM36.8391 11.61C36.8391 11.8167 36.8257 12.0033 36.7991 12.17H32.5891C32.6224 12.61 32.7857 12.9633 33.0791 13.23C33.3724 13.4967 33.7324 13.63 34.1591 13.63C34.7724 13.63 35.2057 13.3733 35.4591 12.86H36.6891C36.5224 13.3667 36.2191 13.7833 35.7791 14.11C35.3457 14.43 34.8057 14.59 34.1591 14.59C33.6324 14.59 33.1591 14.4733 32.7391 14.24C32.3257 14 31.9991 13.6667 31.7591 13.24C31.5257 12.8067 31.4091 12.3067 31.4091 11.74C31.4091 11.1733 31.5224 10.6767 31.7491 10.25C31.9824 9.81667 32.3057 9.48333 32.7191 9.25C33.1391 9.01667 33.6191 8.9 34.1591 8.9C34.6791 8.9 35.1424 9.01333 35.5491 9.24C35.9557 9.46667 36.2724 9.78667 36.4991 10.2C36.7257 10.6067 36.8391 11.0767 36.8391 11.61ZM35.6491 11.25C35.6424 10.83 35.4924 10.4933 35.1991 10.24C34.9057 9.98667 34.5424 9.86 34.1091 9.86C33.7157 9.86 33.3791 9.98667 33.0991 10.24C32.8191 10.4867 32.6524 10.8233 32.5991 11.25H35.6491Z" fill="white"/>
</svg>
