<svg width="49" height="22" viewBox="0 0 49 22" fill="none" xmlns="http://www.w3.org/2000/svg">
<rect x="0.5" y="1" width="48" height="20" rx="10" fill="#00D27A"/>
<rect x="0.5" y="1" width="48" height="20" rx="10" stroke="#00D27A"/>
<path d="M17.11 9.62C17.11 9.97333 17.0267 10.3067 16.86 10.62C16.6933 10.9333 16.4267 11.19 16.06 11.39C15.6933 11.5833 15.2233 11.68 14.65 11.68H13.39V14.5H12.25V7.55H14.65C15.1833 7.55 15.6333 7.64333 16 7.83C16.3733 8.01 16.65 8.25667 16.83 8.57C17.0167 8.88333 17.11 9.23333 17.11 9.62ZM14.65 10.75C15.0833 10.75 15.4067 10.6533 15.62 10.46C15.8333 10.26 15.94 9.98 15.94 9.62C15.94 8.86 15.51 8.48 14.65 8.48H13.39V10.75H14.65ZM17.8173 11.72C17.8173 11.1667 17.9306 10.6767 18.1573 10.25C18.3906 9.82333 18.7039 9.49333 19.0973 9.26C19.4973 9.02 19.9373 8.9 20.4173 8.9C20.8506 8.9 21.2273 8.98667 21.5473 9.16C21.8739 9.32667 22.1339 9.53667 22.3273 9.79V8.99H23.4773V14.5H22.3273V13.68C22.1339 13.94 21.8706 14.1567 21.5373 14.33C21.2039 14.5033 20.8239 14.59 20.3973 14.59C19.9239 14.59 19.4906 14.47 19.0973 14.23C18.7039 13.9833 18.3906 13.6433 18.1573 13.21C17.9306 12.77 17.8173 12.2733 17.8173 11.72ZM22.3273 11.74C22.3273 11.36 22.2473 11.03 22.0873 10.75C21.9339 10.47 21.7306 10.2567 21.4773 10.11C21.2239 9.96333 20.9506 9.89 20.6573 9.89C20.3639 9.89 20.0906 9.96333 19.8373 10.11C19.5839 10.25 19.3773 10.46 19.2173 10.74C19.0639 11.0133 18.9873 11.34 18.9873 11.72C18.9873 12.1 19.0639 12.4333 19.2173 12.72C19.3773 13.0067 19.5839 13.2267 19.8373 13.38C20.0973 13.5267 20.3706 13.6 20.6573 13.6C20.9506 13.6 21.2239 13.5267 21.4773 13.38C21.7306 13.2333 21.9339 13.02 22.0873 12.74C22.2473 12.4533 22.3273 12.12 22.3273 11.74ZM27.1946 8.9C27.6213 8.9 27.9979 8.98667 28.3246 9.16C28.6579 9.32667 28.9179 9.53667 29.1046 9.79V8.99H30.2546V14.59C30.2546 15.0967 30.1479 15.5467 29.9346 15.94C29.7213 16.34 29.4113 16.6533 29.0046 16.88C28.6046 17.1067 28.1246 17.22 27.5646 17.22C26.8179 17.22 26.1979 17.0433 25.7046 16.69C25.2113 16.3433 24.9313 15.87 24.8646 15.27H25.9946C26.0813 15.5567 26.2646 15.7867 26.5446 15.96C26.8313 16.14 27.1713 16.23 27.5646 16.23C28.0246 16.23 28.3946 16.09 28.6746 15.81C28.9613 15.53 29.1046 15.1233 29.1046 14.59V13.67C28.9113 13.93 28.6479 14.15 28.3146 14.33C27.9879 14.5033 27.6146 14.59 27.1946 14.59C26.7146 14.59 26.2746 14.47 25.8746 14.23C25.4813 13.9833 25.1679 13.6433 24.9346 13.21C24.7079 12.77 24.5946 12.2733 24.5946 11.72C24.5946 11.1667 24.7079 10.6767 24.9346 10.25C25.1679 9.82333 25.4813 9.49333 25.8746 9.26C26.2746 9.02 26.7146 8.9 27.1946 8.9ZM29.1046 11.74C29.1046 11.36 29.0246 11.03 28.8646 10.75C28.7113 10.47 28.5079 10.2567 28.2546 10.11C28.0013 9.96333 27.7279 9.89 27.4346 9.89C27.1413 9.89 26.8679 9.96333 26.6146 10.11C26.3613 10.25 26.1546 10.46 25.9946 10.74C25.8413 11.0133 25.7646 11.34 25.7646 11.72C25.7646 12.1 25.8413 12.4333 25.9946 12.72C26.1546 13.0067 26.3613 13.2267 26.6146 13.38C26.8746 13.5267 27.1479 13.6 27.4346 13.6C27.7279 13.6 28.0013 13.5267 28.2546 13.38C28.5079 13.2333 28.7113 13.02 28.8646 12.74C29.0246 12.4533 29.1046 12.12 29.1046 11.74ZM34.142 14.59C33.622 14.59 33.152 14.4733 32.732 14.24C32.312 14 31.982 13.6667 31.742 13.24C31.502 12.8067 31.382 12.3067 31.382 11.74C31.382 11.18 31.5053 10.6833 31.752 10.25C31.9986 9.81667 32.3353 9.48333 32.762 9.25C33.1886 9.01667 33.6653 8.9 34.192 8.9C34.7186 8.9 35.1953 9.01667 35.622 9.25C36.0486 9.48333 36.3853 9.81667 36.632 10.25C36.8786 10.6833 37.002 11.18 37.002 11.74C37.002 12.3 36.8753 12.7967 36.622 13.23C36.3686 13.6633 36.022 14 35.582 14.24C35.1486 14.4733 34.6686 14.59 34.142 14.59ZM34.142 13.6C34.4353 13.6 34.7086 13.53 34.962 13.39C35.222 13.25 35.432 13.04 35.592 12.76C35.752 12.48 35.832 12.14 35.832 11.74C35.832 11.34 35.7553 11.0033 35.602 10.73C35.4486 10.45 35.2453 10.24 34.992 10.1C34.7386 9.96 34.4653 9.89 34.172 9.89C33.8786 9.89 33.6053 9.96 33.352 10.1C33.1053 10.24 32.9086 10.45 32.762 10.73C32.6153 11.0033 32.542 11.34 32.542 11.74C32.542 12.3333 32.692 12.7933 32.992 13.12C33.2986 13.44 33.682 13.6 34.142 13.6Z" fill="white"/>
</svg>
