<svg width="26" height="22" viewBox="0 0 26 22" fill="none" xmlns="http://www.w3.org/2000/svg">
<path d="M5.39909 21.4627C4.7994 22.1304 3.76289 22.1914 3.17518 21.5131C1.81855 19.9475 0.850358 18.0738 0.361526 16.0445C-0.254688 13.4864 -0.0801548 10.8016 0.862057 8.34486C1.80427 5.88811 3.4698 3.7751 5.63852 2.28512C7.80724 0.795141 10.377 -0.00167113 13.0083 2.63016e-06C15.6395 0.00167639 18.2083 0.801757 20.3751 2.2945C22.5419 3.78724 24.2048 5.90236 25.1439 8.3603C26.0829 10.8182 26.2541 13.5033 25.6346 16.0606C25.1432 18.0892 24.1726 19.9617 22.814 21.5256C22.2254 22.2031 21.189 22.1408 20.5901 21.4723C19.9913 20.8039 20.0606 19.7835 20.6204 19.0821C21.5037 17.9754 22.1395 16.6842 22.4759 15.2954C22.9405 13.3775 22.8122 11.3637 22.1079 9.52023C21.4036 7.67677 20.1564 6.09043 18.5313 4.97087C16.9062 3.85132 14.9796 3.25126 13.0062 3.25C11.0328 3.24875 9.10543 3.84636 7.47889 4.96384C5.85235 6.08133 4.6032 7.66608 3.89654 9.50864C3.18988 11.3512 3.05898 13.3648 3.52114 15.2834C3.85579 16.6726 4.48997 17.9646 5.37183 19.0724C5.93077 19.7745 5.99879 20.795 5.39909 21.4627Z" fill="#EDF2F9"/>
<path d="M5.39468 21.4587C4.79464 22.1261 3.7581 22.1866 3.17074 21.508C1.80991 19.9358 0.840634 18.0536 0.354621 16.0157C-0.131391 13.9777 -0.115863 11.8607 0.388996 9.8436C0.6069 8.97299 1.55918 8.55917 2.39583 8.88392C3.23247 9.20867 3.63279 10.1498 3.45135 11.0287C3.16392 12.421 3.18314 13.8661 3.51597 15.2618C3.8488 16.6574 4.48382 17.9556 5.36866 19.0684C5.92723 19.7708 5.99473 20.7913 5.39468 21.4587Z" fill="#00D27A"/>
</svg>
