<svg width="88" height="22" viewBox="0 0 88 22" fill="none" xmlns="http://www.w3.org/2000/svg">
<path d="M5.39909 21.4627C4.7994 22.1304 3.76289 22.1914 3.17518 21.5131C1.81855 19.9475 0.850358 18.0738 0.361526 16.0445C-0.254688 13.4864 -0.0801548 10.8016 0.862057 8.34486C1.80427 5.88811 3.4698 3.7751 5.63852 2.28512C7.80724 0.795141 10.377 -0.00167113 13.0083 2.63016e-06C15.6395 0.00167639 18.2083 0.801757 20.3751 2.2945C22.5419 3.78724 24.2048 5.90236 25.1439 8.3603C26.0829 10.8182 26.2541 13.5033 25.6346 16.0606C25.1432 18.0892 24.1726 19.9617 22.814 21.5256C22.2254 22.2031 21.189 22.1408 20.5901 21.4723C19.9913 20.8039 20.0606 19.7835 20.6204 19.0821C21.5037 17.9754 22.1395 16.6842 22.4759 15.2954C22.9405 13.3775 22.8122 11.3637 22.1079 9.52023C21.4036 7.67677 20.1564 6.09043 18.5313 4.97087C16.9062 3.85132 14.9796 3.25126 13.0062 3.25C11.0328 3.24875 9.10543 3.84636 7.47889 4.96384C5.85235 6.08133 4.6032 7.66608 3.89654 9.50864C3.18988 11.3512 3.05898 13.3648 3.52114 15.2834C3.85579 16.6726 4.48997 17.9646 5.37183 19.0724C5.93077 19.7745 5.99879 20.795 5.39909 21.4627Z" fill="#EDF2F9"/>
<path d="M5.39468 21.4587C4.79464 22.1261 3.7581 22.1866 3.17074 21.508C1.80991 19.9358 0.840634 18.0536 0.354621 16.0157C-0.131391 13.9777 -0.115863 11.8607 0.388996 9.8436C0.6069 8.97299 1.55918 8.55917 2.39583 8.88392C3.23247 9.20867 3.63279 10.1498 3.45135 11.0287C3.16392 12.421 3.18314 13.8661 3.51597 15.2618C3.8488 16.6574 4.48382 17.9556 5.36866 19.0684C5.92723 19.7708 5.99473 20.7913 5.39468 21.4587Z" fill="#00D27A"/>
<path d="M39.811 11.359C40.2963 11.4457 40.708 11.7013 41.046 12.126C41.384 12.5507 41.553 13.0317 41.553 13.569C41.553 14.0283 41.4317 14.4443 41.189 14.817C40.955 15.181 40.6127 15.4713 40.162 15.688C39.7113 15.896 39.187 16 38.589 16H34.975V6.965H38.42C39.0353 6.965 39.564 7.069 40.006 7.277C40.448 7.485 40.7817 7.76667 41.007 8.122C41.2323 8.46867 41.345 8.85867 41.345 9.292C41.345 9.812 41.2063 10.2453 40.929 10.592C40.6517 10.9387 40.279 11.1943 39.811 11.359ZM36.457 10.761H38.29C38.7753 10.761 39.1523 10.6527 39.421 10.436C39.6983 10.2107 39.837 9.89 39.837 9.474C39.837 9.06667 39.6983 8.75033 39.421 8.525C39.1523 8.291 38.7753 8.174 38.29 8.174H36.457V10.761ZM38.459 14.791C38.9617 14.791 39.356 14.6697 39.642 14.427C39.928 14.1843 40.071 13.8463 40.071 13.413C40.071 12.971 39.9193 12.62 39.616 12.36C39.3127 12.1 38.9097 11.97 38.407 11.97H36.457V14.791H38.459ZM42.6695 12.386C42.6695 11.6667 42.8168 11.0297 43.1115 10.475C43.4148 9.92033 43.8221 9.49133 44.3335 9.188C44.8535 8.876 45.4255 8.72 46.0495 8.72C46.6128 8.72 47.1025 8.83267 47.5185 9.058C47.9431 9.27467 48.2811 9.54767 48.5325 9.877V8.837H50.0275V16H48.5325V14.934C48.2811 15.272 47.9388 15.5537 47.5055 15.779C47.0721 16.0043 46.5781 16.117 46.0235 16.117C45.4081 16.117 44.8448 15.961 44.3335 15.649C43.8221 15.3283 43.4148 14.8863 43.1115 14.323C42.8168 13.751 42.6695 13.1053 42.6695 12.386ZM48.5325 12.412C48.5325 11.918 48.4285 11.489 48.2205 11.125C48.0211 10.761 47.7568 10.4837 47.4275 10.293C47.0981 10.1023 46.7428 10.007 46.3615 10.007C45.9801 10.007 45.6248 10.1023 45.2955 10.293C44.9661 10.475 44.6975 10.748 44.4895 11.112C44.2901 11.4673 44.1905 11.892 44.1905 12.386C44.1905 12.88 44.2901 13.3133 44.4895 13.686C44.6975 14.0587 44.9661 14.3447 45.2955 14.544C45.6335 14.7347 45.9888 14.83 46.3615 14.83C46.7428 14.83 47.0981 14.7347 47.4275 14.544C47.7568 14.3533 48.0211 14.076 48.2205 13.712C48.4285 13.3393 48.5325 12.906 48.5325 12.412ZM52.728 7.888C52.4594 7.888 52.234 7.797 52.052 7.615C51.87 7.433 51.779 7.20767 51.779 6.939C51.779 6.67033 51.87 6.445 52.052 6.263C52.234 6.081 52.4594 5.99 52.728 5.99C52.988 5.99 53.209 6.081 53.391 6.263C53.573 6.445 53.664 6.67033 53.664 6.939C53.664 7.20767 53.573 7.433 53.391 7.615C53.209 7.797 52.988 7.888 52.728 7.888ZM53.456 17.404C53.456 18.106 53.2784 18.613 52.923 18.925C52.5764 19.2457 52.0694 19.406 51.402 19.406H50.635V18.158H51.142C51.4454 18.158 51.6577 18.0973 51.779 17.976C51.909 17.8633 51.974 17.6727 51.974 17.404V8.837H53.456V17.404ZM58.5088 16.117C57.8328 16.117 57.2218 15.9653 56.6758 15.662C56.1298 15.35 55.7008 14.9167 55.3888 14.362C55.0768 13.7987 54.9208 13.1487 54.9208 12.412C54.9208 11.684 55.0811 11.0383 55.4018 10.475C55.7224 9.91167 56.1601 9.47833 56.7148 9.175C57.2694 8.87167 57.8891 8.72 58.5738 8.72C59.2584 8.72 59.8781 8.87167 60.4328 9.175C60.9874 9.47833 61.4251 9.91167 61.7458 10.475C62.0664 11.0383 62.2268 11.684 62.2268 12.412C62.2268 13.14 62.0621 13.7857 61.7328 14.349C61.4034 14.9123 60.9528 15.35 60.3808 15.662C59.8174 15.9653 59.1934 16.117 58.5088 16.117ZM58.5088 14.83C58.8901 14.83 59.2454 14.739 59.5748 14.557C59.9128 14.375 60.1858 14.102 60.3938 13.738C60.6018 13.374 60.7058 12.932 60.7058 12.412C60.7058 11.892 60.6061 11.4543 60.4068 11.099C60.2074 10.735 59.9431 10.462 59.6138 10.28C59.2844 10.098 58.9291 10.007 58.5478 10.007C58.1664 10.007 57.8111 10.098 57.4818 10.28C57.1611 10.462 56.9054 10.735 56.7148 11.099C56.5241 11.4543 56.4288 11.892 56.4288 12.412C56.4288 13.1833 56.6238 13.7813 57.0138 14.206C57.4124 14.622 57.9108 14.83 58.5088 14.83Z" fill="#5E6E82"/>
</svg>
