<svg width="109" height="30" viewBox="0 0 109 30" fill="none" xmlns="http://www.w3.org/2000/svg">
<rect width="109" height="30" rx="15" fill="#0D99FF"/>
<path d="M21.6069 12.161V14.813H24.7269V16.022H21.6069V18.791H25.1169V20H20.1249V10.952H25.1169V12.161H21.6069ZM30.5563 12.72C31.1196 12.72 31.6223 12.837 32.0643 13.071C32.515 13.305 32.866 13.6517 33.1173 14.111C33.3686 14.5703 33.4943 15.125 33.4943 15.775V20H32.0253V15.996C32.0253 15.3547 31.865 14.865 31.5443 14.527C31.2236 14.1803 30.786 14.007 30.2313 14.007C29.6766 14.007 29.2346 14.1803 28.9053 14.527C28.5846 14.865 28.4243 15.3547 28.4243 15.996V20H26.9423V12.837H28.4243V13.656C28.667 13.3613 28.9746 13.1317 29.3473 12.967C29.7286 12.8023 30.1316 12.72 30.5563 12.72ZM45.0796 13.656C45.0796 14.1153 44.9713 14.5487 44.7546 14.956C44.538 15.3633 44.1913 15.697 43.7146 15.957C43.238 16.2083 42.627 16.334 41.8816 16.334H40.2436V20H38.7616V10.965H41.8816C42.575 10.965 43.16 11.0863 43.6366 11.329C44.122 11.563 44.4816 11.8837 44.7156 12.291C44.9583 12.6983 45.0796 13.1533 45.0796 13.656ZM41.8816 15.125C42.445 15.125 42.8653 14.9993 43.1426 14.748C43.42 14.488 43.5586 14.124 43.5586 13.656C43.5586 12.668 42.9996 12.174 41.8816 12.174H40.2436V15.125H41.8816ZM47.9751 13.877C48.1917 13.513 48.4777 13.2313 48.8331 13.032C49.1971 12.824 49.6261 12.72 50.1201 12.72V14.254H49.7431C49.1624 14.254 48.7204 14.4013 48.4171 14.696C48.1224 14.9907 47.9751 15.502 47.9751 16.23V20H46.4931V12.837H47.9751V13.877ZM54.5893 20.117C53.9133 20.117 53.3023 19.9653 52.7563 19.662C52.2103 19.35 51.7813 18.9167 51.4693 18.362C51.1573 17.7987 51.0013 17.1487 51.0013 16.412C51.0013 15.684 51.1617 15.0383 51.4823 14.475C51.803 13.9117 52.2407 13.4783 52.7953 13.175C53.35 12.8717 53.9697 12.72 54.6543 12.72C55.339 12.72 55.9587 12.8717 56.5133 13.175C57.068 13.4783 57.5057 13.9117 57.8263 14.475C58.147 15.0383 58.3073 15.684 58.3073 16.412C58.3073 17.14 58.1427 17.7857 57.8133 18.349C57.484 18.9123 57.0333 19.35 56.4613 19.662C55.898 19.9653 55.274 20.117 54.5893 20.117ZM54.5893 18.83C54.9707 18.83 55.326 18.739 55.6553 18.557C55.9933 18.375 56.2663 18.102 56.4743 17.738C56.6823 17.374 56.7863 16.932 56.7863 16.412C56.7863 15.892 56.6867 15.4543 56.4873 15.099C56.288 14.735 56.0237 14.462 55.6943 14.28C55.365 14.098 55.0097 14.007 54.6283 14.007C54.247 14.007 53.8917 14.098 53.5623 14.28C53.2417 14.462 52.986 14.735 52.7953 15.099C52.6047 15.4543 52.5093 15.892 52.5093 16.412C52.5093 17.1833 52.7043 17.7813 53.0943 18.206C53.493 18.622 53.9913 18.83 54.5893 18.83ZM59.2784 16.412C59.2784 15.6753 59.4257 15.0297 59.7204 14.475C60.0237 13.9117 60.4397 13.4783 60.9684 13.175C61.497 12.8717 62.1037 12.72 62.7884 12.72C63.655 12.72 64.37 12.928 64.9334 13.344C65.5054 13.7513 65.891 14.3363 66.0904 15.099H64.4914C64.3614 14.7437 64.1534 14.4663 63.8674 14.267C63.5814 14.0677 63.2217 13.968 62.7884 13.968C62.1817 13.968 61.6964 14.1847 61.3324 14.618C60.977 15.0427 60.7994 15.6407 60.7994 16.412C60.7994 17.1833 60.977 17.7857 61.3324 18.219C61.6964 18.6523 62.1817 18.869 62.7884 18.869C63.6464 18.869 64.214 18.492 64.4914 17.738H66.0904C65.8824 18.466 65.4924 19.0467 64.9204 19.48C64.3484 19.9047 63.6377 20.117 62.7884 20.117C62.1037 20.117 61.497 19.9653 60.9684 19.662C60.4397 19.35 60.0237 18.9167 59.7204 18.362C59.4257 17.7987 59.2784 17.1487 59.2784 16.412ZM74.1323 16.243C74.1323 16.5117 74.115 16.7543 74.0803 16.971H68.6073C68.6506 17.543 68.863 18.0023 69.2443 18.349C69.6256 18.6957 70.0936 18.869 70.6483 18.869C71.4456 18.869 72.009 18.5353 72.3383 17.868H73.9373C73.7206 18.5267 73.3263 19.0683 72.7543 19.493C72.191 19.909 71.489 20.117 70.6483 20.117C69.9636 20.117 69.3483 19.9653 68.8023 19.662C68.265 19.35 67.8403 18.9167 67.5283 18.362C67.225 17.7987 67.0733 17.1487 67.0733 16.412C67.0733 15.6753 67.2206 15.0297 67.5153 14.475C67.8186 13.9117 68.239 13.4783 68.7763 13.175C69.3223 12.8717 69.9463 12.72 70.6483 12.72C71.3243 12.72 71.9266 12.8673 72.4553 13.162C72.984 13.4567 73.3956 13.8727 73.6903 14.41C73.985 14.9387 74.1323 15.5497 74.1323 16.243ZM72.5853 15.775C72.5766 15.229 72.3816 14.7913 72.0003 14.462C71.619 14.1327 71.1466 13.968 70.5833 13.968C70.072 13.968 69.6343 14.1327 69.2703 14.462C68.9063 14.7827 68.6896 15.2203 68.6203 15.775H72.5853ZM78.1907 20.117C77.6274 20.117 77.1204 20.0173 76.6697 19.818C76.2277 19.61 75.8767 19.3327 75.6167 18.986C75.3567 18.6307 75.2181 18.2363 75.2007 17.803H76.7347C76.7607 18.1063 76.9037 18.362 77.1637 18.57C77.4324 18.7693 77.7661 18.869 78.1647 18.869C78.5807 18.869 78.9014 18.791 79.1267 18.635C79.3607 18.4703 79.4777 18.2623 79.4777 18.011C79.4777 17.7423 79.3477 17.543 79.0877 17.413C78.8364 17.283 78.4334 17.14 77.8787 16.984C77.3414 16.8367 76.9037 16.6937 76.5657 16.555C76.2277 16.4163 75.9331 16.204 75.6817 15.918C75.4391 15.632 75.3177 15.255 75.3177 14.787C75.3177 14.4057 75.4304 14.059 75.6557 13.747C75.8811 13.4263 76.2017 13.175 76.6177 12.993C77.0424 12.811 77.5277 12.72 78.0737 12.72C78.8884 12.72 79.5427 12.928 80.0367 13.344C80.5394 13.7513 80.8081 14.3103 80.8427 15.021H79.3607C79.3347 14.7003 79.2047 14.4447 78.9707 14.254C78.7367 14.0633 78.4204 13.968 78.0217 13.968C77.6317 13.968 77.3327 14.0417 77.1247 14.189C76.9167 14.3363 76.8127 14.5313 76.8127 14.774C76.8127 14.9647 76.8821 15.125 77.0207 15.255C77.1594 15.385 77.3284 15.489 77.5277 15.567C77.7271 15.6363 78.0217 15.7273 78.4117 15.84C78.9317 15.9787 79.3564 16.1217 79.6857 16.269C80.0237 16.4077 80.3141 16.6157 80.5567 16.893C80.7994 17.1703 80.9251 17.5387 80.9337 17.998C80.9337 18.4053 80.8211 18.7693 80.5957 19.09C80.3704 19.4107 80.0497 19.662 79.6337 19.844C79.2264 20.026 78.7454 20.117 78.1907 20.117ZM85.6421 20.117C84.9661 20.117 84.3551 19.9653 83.8091 19.662C83.2631 19.35 82.8341 18.9167 82.5221 18.362C82.2101 17.7987 82.0541 17.1487 82.0541 16.412C82.0541 15.684 82.2144 15.0383 82.5351 14.475C82.8557 13.9117 83.2934 13.4783 83.8481 13.175C84.4027 12.8717 85.0224 12.72 85.7071 12.72C86.3917 12.72 87.0114 12.8717 87.5661 13.175C88.1207 13.4783 88.5584 13.9117 88.8791 14.475C89.1997 15.0383 89.3601 15.684 89.3601 16.412C89.3601 17.14 89.1954 17.7857 88.8661 18.349C88.5367 18.9123 88.0861 19.35 87.5141 19.662C86.9507 19.9653 86.3267 20.117 85.6421 20.117ZM85.6421 18.83C86.0234 18.83 86.3787 18.739 86.7081 18.557C87.0461 18.375 87.3191 18.102 87.5271 17.738C87.7351 17.374 87.8391 16.932 87.8391 16.412C87.8391 15.892 87.7394 15.4543 87.5401 15.099C87.3407 14.735 87.0764 14.462 86.7471 14.28C86.4177 14.098 86.0624 14.007 85.6811 14.007C85.2997 14.007 84.9444 14.098 84.6151 14.28C84.2944 14.462 84.0387 14.735 83.8481 15.099C83.6574 15.4543 83.5621 15.892 83.5621 16.412C83.5621 17.1833 83.7571 17.7813 84.1471 18.206C84.5457 18.622 85.0441 18.83 85.6421 18.83Z" fill="white"/>
</svg>
