<svg width="40" height="41" viewBox="0 0 40 41" fill="none" xmlns="http://www.w3.org/2000/svg">
<path opacity="0.4" d="M28.5 40.5C26.8431 40.5 25.5 39.1569 25.5 37.5V29.4459C25.5 27.7891 26.8431 26.4459 28.5 26.4459H36.5541C38.2109 26.4459 39.5541 27.7891 39.5541 29.4459V40.5H28.5Z" fill="#2C7BE5"/>
<rect opacity="0.2" x="0.5" y="0.5" width="32" height="32" rx="4" fill="#2C7BE5"/>
<path d="M10.5625 13.3125H22.4375V20.4375H10.5625V13.3125ZM24.8125 9.75C26.1113 9.75 27.1875 10.8262 27.1875 12.125V15.0938C26.1855 15.0938 25.4062 15.9102 25.4062 16.875C25.4062 17.877 26.1855 18.6562 27.1875 18.6562V21.625C27.1875 22.9609 26.1113 24 24.8125 24H8.1875C6.85156 24 5.8125 22.9609 5.8125 21.625V18.6562C6.77734 18.6562 7.59375 17.877 7.59375 16.875C7.59375 15.9102 6.77734 15.0938 5.8125 15.0938V12.125C5.8125 10.8262 6.85156 9.75 8.1875 9.75H24.8125ZM9.375 20.4375C9.375 21.1055 9.89453 21.625 10.5625 21.625H22.4375C23.0684 21.625 23.625 21.1055 23.625 20.4375V13.3125C23.625 12.6816 23.0684 12.125 22.4375 12.125H10.5625C9.89453 12.125 9.375 12.6816 9.375 13.3125V20.4375Z" fill="#2C7BE5"/>
</svg>
