<svg width="13" height="9" viewBox="0 0 13 9" fill="none" xmlns="http://www.w3.org/2000/svg">
<path d="M3.0625 2.3125H9.9375V6.4375H3.0625V2.3125ZM11.3125 0.25C12.0645 0.25 12.6875 0.873047 12.6875 1.625V3.34375C12.1074 3.34375 11.6562 3.81641 11.6562 4.375C11.6562 4.95508 12.1074 5.40625 12.6875 5.40625V7.125C12.6875 7.89844 12.0645 8.5 11.3125 8.5H1.6875C0.914062 8.5 0.3125 7.89844 0.3125 7.125V5.40625C0.871094 5.40625 1.34375 4.95508 1.34375 4.375C1.34375 3.81641 0.871094 3.34375 0.3125 3.34375V1.625C0.3125 0.873047 0.914062 0.25 1.6875 0.25H11.3125ZM2.375 6.4375C2.375 6.82422 2.67578 7.125 3.0625 7.125H9.9375C10.3027 7.125 10.625 6.82422 10.625 6.4375V2.3125C10.625 1.94727 10.3027 1.625 9.9375 1.625H3.0625C2.67578 1.625 2.375 1.94727 2.375 2.3125V6.4375Z" fill="#2C7BE5"/>
</svg>
