<svg width="11" height="9" viewBox="0 0 11 9" fill="none" xmlns="http://www.w3.org/2000/svg">
<path d="M0 0.9375C0 0.572266 0.300781 0.25 0.6875 0.25H8.9375C9.30273 0.25 9.625 0.572266 9.625 0.9375C9.625 1.32422 9.30273 1.625 8.9375 1.625H0.6875C0.300781 1.625 0 1.32422 0 0.9375ZM1.375 4.375C1.375 4.00977 1.67578 3.6875 2.0625 3.6875H10.3125C10.6777 3.6875 11 4.00977 11 4.375C11 4.76172 10.6777 5.0625 10.3125 5.0625H2.0625C1.67578 5.0625 1.375 4.76172 1.375 4.375ZM8.9375 8.5H0.6875C0.300781 8.5 0 8.19922 0 7.8125C0 7.44727 0.300781 7.125 0.6875 7.125H8.9375C9.30273 7.125 9.625 7.44727 9.625 7.8125C9.625 8.19922 9.30273 8.5 8.9375 8.5Z" fill="#748194"/>
</svg>
