<svg width="88" height="23" viewBox="0 0 88 23" fill="none" xmlns="http://www.w3.org/2000/svg">
<path d="M5.39909 21.4627C4.7994 22.1304 3.76289 22.1914 3.17518 21.5131C1.81855 19.9475 0.850358 18.0738 0.361526 16.0445C-0.254688 13.4864 -0.0801548 10.8016 0.862057 8.34486C1.80427 5.88811 3.4698 3.7751 5.63852 2.28512C7.80724 0.795141 10.377 -0.00167113 13.0083 2.63016e-06C15.6395 0.00167639 18.2083 0.801757 20.3751 2.2945C22.5419 3.78724 24.2048 5.90236 25.1439 8.3603C26.0829 10.8182 26.2541 13.5033 25.6346 16.0606C25.1432 18.0892 24.1726 19.9617 22.814 21.5256C22.2254 22.2031 21.189 22.1408 20.5901 21.4723C19.9913 20.8039 20.0606 19.7835 20.6204 19.0821C21.5037 17.9754 22.1395 16.6842 22.4759 15.2954C22.9405 13.3775 22.8122 11.3637 22.1079 9.52023C21.4036 7.67677 20.1564 6.09043 18.5313 4.97087C16.9062 3.85132 14.9796 3.25126 13.0062 3.25C11.0328 3.24875 9.10543 3.84636 7.47889 4.96384C5.85235 6.08133 4.6032 7.66608 3.89654 9.50864C3.18988 11.3512 3.05898 13.3648 3.52114 15.2834C3.85579 16.6726 4.48997 17.9646 5.37183 19.0724C5.93077 19.7745 5.99879 20.795 5.39909 21.4627Z" fill="#EDF2F9"/>
<path d="M5.39468 21.4587C4.79464 22.1261 3.7581 22.1866 3.17074 21.508C1.80991 19.9358 0.840633 18.0536 0.354621 16.0157C-0.257569 13.4487 -0.0739949 10.7561 0.880944 8.29591C1.83588 5.83572 3.51696 3.72442 5.70072 2.24266C7.88447 0.760889 10.4675 -0.0211684 13.1064 0.000435617C15.7454 0.0220397 18.3152 0.846282 20.4744 2.3636C22.6336 3.88093 24.2799 6.01946 25.1944 8.49496C26.109 10.9704 26.2484 13.6657 25.5943 16.2223C25.075 18.252 24.075 20.1181 22.6886 21.6678C22.0903 22.3366 21.0548 22.2592 20.4658 21.5821C19.8768 20.905 19.961 19.8857 20.531 19.1925C21.4339 18.0944 22.0901 16.8067 22.4457 15.4167C22.9363 13.4992 22.8317 11.4778 22.1458 9.62122C21.4599 7.7646 20.2252 6.16069 18.6058 5.0227C16.9864 3.88471 15.059 3.26653 13.0798 3.25033C11.1006 3.23412 9.16336 3.82067 7.52554 4.93199C5.88772 6.04332 4.62691 7.62679 3.91071 9.47193C3.1945 11.3171 3.05682 13.3365 3.51597 15.2618C3.8488 16.6574 4.48382 17.9556 5.36866 19.0684C5.92724 19.7708 5.99473 20.7913 5.39468 21.4587Z" fill="#E63757"/>
<path d="M36.444 6.965V12.724C36.444 13.4087 36.6217 13.9243 36.977 14.271C37.341 14.6177 37.8437 14.791 38.485 14.791C39.135 14.791 39.6377 14.6177 39.993 14.271C40.357 13.9243 40.539 13.4087 40.539 12.724V6.965H42.021V12.698C42.021 13.4347 41.8607 14.0587 41.54 14.57C41.2193 15.0813 40.7903 15.4627 40.253 15.714C39.7157 15.9653 39.122 16.091 38.472 16.091C37.822 16.091 37.2283 15.9653 36.691 15.714C36.1623 15.4627 35.742 15.0813 35.43 14.57C35.118 14.0587 34.962 13.4347 34.962 12.698V6.965H36.444ZM45.4326 9.877C45.6493 9.513 45.9353 9.23133 46.2906 9.032C46.6546 8.824 47.0836 8.72 47.5776 8.72V10.254H47.2006C46.6199 10.254 46.1779 10.4013 45.8746 10.696C45.5799 10.9907 45.4326 11.502 45.4326 12.23V16H43.9506V8.837H45.4326V9.877ZM51.8258 8.72C52.3805 8.72 52.8702 8.83267 53.2948 9.058C53.7282 9.27467 54.0662 9.54767 54.3088 9.877V8.837H55.8038V16.117C55.8038 16.7757 55.6652 17.3607 55.3878 17.872C55.1105 18.392 54.7075 18.7993 54.1788 19.094C53.6588 19.3887 53.0348 19.536 52.3068 19.536C51.3362 19.536 50.5302 19.3063 49.8888 18.847C49.2475 18.3963 48.8835 17.781 48.7968 17.001H50.2658C50.3785 17.3737 50.6168 17.6727 50.9808 17.898C51.3535 18.132 51.7955 18.249 52.3068 18.249C52.9048 18.249 53.3858 18.067 53.7498 17.703C54.1225 17.339 54.3088 16.8103 54.3088 16.117V14.921C54.0575 15.259 53.7152 15.545 53.2818 15.779C52.8572 16.0043 52.3718 16.117 51.8258 16.117C51.2018 16.117 50.6298 15.961 50.1098 15.649C49.5985 15.3283 49.1912 14.8863 48.8878 14.323C48.5932 13.751 48.4458 13.1053 48.4458 12.386C48.4458 11.6667 48.5932 11.0297 48.8878 10.475C49.1912 9.92033 49.5985 9.49133 50.1098 9.188C50.6298 8.876 51.2018 8.72 51.8258 8.72ZM54.3088 12.412C54.3088 11.918 54.2048 11.489 53.9968 11.125C53.7975 10.761 53.5332 10.4837 53.2038 10.293C52.8745 10.1023 52.5192 10.007 52.1378 10.007C51.7565 10.007 51.4012 10.1023 51.0718 10.293C50.7425 10.475 50.4738 10.748 50.2658 11.112C50.0665 11.4673 49.9668 11.892 49.9668 12.386C49.9668 12.88 50.0665 13.3133 50.2658 13.686C50.4738 14.0587 50.7425 14.3447 51.0718 14.544C51.4098 14.7347 51.7652 14.83 52.1378 14.83C52.5192 14.83 52.8745 14.7347 53.2038 14.544C53.5332 14.3533 53.7975 14.076 53.9968 13.712C54.2048 13.3393 54.3088 12.906 54.3088 12.412ZM64.3154 12.243C64.3154 12.5117 64.2981 12.7543 64.2634 12.971H58.7904C58.8337 13.543 59.0461 14.0023 59.4274 14.349C59.8087 14.6957 60.2767 14.869 60.8314 14.869C61.6287 14.869 62.1921 14.5353 62.5214 13.868H64.1204C63.9037 14.5267 63.5094 15.0683 62.9374 15.493C62.3741 15.909 61.6721 16.117 60.8314 16.117C60.1467 16.117 59.5314 15.9653 58.9854 15.662C58.4481 15.35 58.0234 14.9167 57.7114 14.362C57.4081 13.7987 57.2564 13.1487 57.2564 12.412C57.2564 11.6753 57.4037 11.0297 57.6984 10.475C58.0017 9.91167 58.4221 9.47833 58.9594 9.175C59.5054 8.87167 60.1294 8.72 60.8314 8.72C61.5074 8.72 62.1097 8.86733 62.6384 9.162C63.1671 9.45667 63.5787 9.87267 63.8734 10.41C64.1681 10.9387 64.3154 11.5497 64.3154 12.243ZM62.7684 11.775C62.7597 11.229 62.5647 10.7913 62.1834 10.462C61.8021 10.1327 61.3297 9.968 60.7664 9.968C60.2551 9.968 59.8174 10.1327 59.4534 10.462C59.0894 10.7827 58.8727 11.2203 58.8034 11.775H62.7684ZM69.3878 8.72C69.9512 8.72 70.4538 8.837 70.8958 9.071C71.3465 9.305 71.6975 9.65167 71.9488 10.111C72.2002 10.5703 72.3258 11.125 72.3258 11.775V16H70.8568V11.996C70.8568 11.3547 70.6965 10.865 70.3758 10.527C70.0552 10.1803 69.6175 10.007 69.0628 10.007C68.5082 10.007 68.0662 10.1803 67.7368 10.527C67.4162 10.865 67.2558 11.3547 67.2558 11.996V16H65.7738V8.837H67.2558V9.656C67.4985 9.36133 67.8062 9.13167 68.1788 8.967C68.5602 8.80233 68.9632 8.72 69.3878 8.72ZM75.9452 10.046V14.011C75.9452 14.2797 76.0059 14.4747 76.1272 14.596C76.2572 14.7087 76.4739 14.765 76.7772 14.765H77.6872V16H76.5172C75.8499 16 75.3385 15.844 74.9832 15.532C74.6279 15.22 74.4502 14.713 74.4502 14.011V10.046H73.6052V8.837H74.4502V7.056H75.9452V8.837H77.6872V10.046H75.9452ZM85.6181 12.243C85.6181 12.5117 85.6008 12.7543 85.5661 12.971H80.0931C80.1365 13.543 80.3488 14.0023 80.7301 14.349C81.1115 14.6957 81.5795 14.869 82.1341 14.869C82.9315 14.869 83.4948 14.5353 83.8241 13.868H85.4231C85.2065 14.5267 84.8121 15.0683 84.2401 15.493C83.6768 15.909 82.9748 16.117 82.1341 16.117C81.4495 16.117 80.8341 15.9653 80.2881 15.662C79.7508 15.35 79.3261 14.9167 79.0141 14.362C78.7108 13.7987 78.5591 13.1487 78.5591 12.412C78.5591 11.6753 78.7065 11.0297 79.0011 10.475C79.3045 9.91167 79.7248 9.47833 80.2621 9.175C80.8081 8.87167 81.4321 8.72 82.1341 8.72C82.8101 8.72 83.4125 8.86733 83.9411 9.162C84.4698 9.45667 84.8815 9.87267 85.1761 10.41C85.4708 10.9387 85.6181 11.5497 85.6181 12.243ZM84.0711 11.775C84.0625 11.229 83.8675 10.7913 83.4861 10.462C83.1048 10.1327 82.6325 9.968 82.0691 9.968C81.5578 9.968 81.1201 10.1327 80.7561 10.462C80.3921 10.7827 80.1755 11.2203 80.1061 11.775H84.0711Z" fill="#5E6E82"/>
</svg>
